HIERARCHY
ROOT Hips
{
  OFFSET 0.0502701 92.146 0
  CHANNELS 6 Xposition Yposition Zposition Zrotation Xrotation Yrotation
  JOINT Bip01_Pelvis
  {
    OFFSET 0 0 0
    CHANNELS 6 Xposition Yposition Zposition Zrotation Xrotation Yrotation
    JOINT BN_Tai_01
    {
      OFFSET -4.6544 -2.06234 0
      CHANNELS 6 Xposition Yposition Zposition Zrotation Xrotation Yrotation
      JOINT BN_Tai_R_01
      {
        OFFSET 10.2279 -0.119812 3.68897
        CHANNELS 6 Xposition Yposition Zposition Zrotation Xrotation Yrotation
        JOINT BN_Tai_R_02
        {
          OFFSET 15.0421 0 1.52588e-005
          CHANNELS 6 Xposition Yposition Zposition Zrotation Xrotation Yrotation
          End Site
          {
            OFFSET 0 0 0
          }
        }
      }
      JOINT BN_Tai_L_01
      {
        OFFSET 10.2279 -0.119797 -3.68907
        CHANNELS 6 Xposition Yposition Zposition Zrotation Xrotation Yrotation
        JOINT BN_Tai_L_02
        {
          OFFSET 15.0421 0 0
          CHANNELS 6 Xposition Yposition Zposition Zrotation Xrotation Yrotation
          End Site
          {
            OFFSET 0 0 0
          }
        }
      }
    }
    JOINT Bip01_Spine
    {
      OFFSET 2.7319 1.49192 0
      CHANNELS 6 Xposition Yposition Zposition Zrotation Xrotation Yrotation
      JOINT Bip01_R_Thigh
      {
        OFFSET -2.85206 -1.24717 -6.20578
        CHANNELS 6 Xposition Yposition Zposition Zrotation Xrotation Yrotation
        JOINT Bip01_R_Calf
        {
          OFFSET 6.73247 0 0
          CHANNELS 6 Xposition Yposition Zposition Zrotation Xrotation Yrotation
          JOINT Bip01_R_HorseLink
          {
            OFFSET 8.08523 0 0
            CHANNELS 6 Xposition Yposition Zposition Zrotation Xrotation Yrotation
            JOINT Bip01_R_Foot
            {
              OFFSET 8.97518 0 0
              CHANNELS 6 Xposition Yposition Zposition Zrotation Xrotation Yrotation
              JOINT BN_Toe_R_30
              {
                OFFSET 1.58762 -0.234982 -0.295153
                CHANNELS 6 Xposition Yposition Zposition Zrotation Xrotation Yrotation
                JOINT BN_Toe_R_31
                {
                  OFFSET 3.03849 0 0
                  CHANNELS 6 Xposition Yposition Zposition Zrotation Xrotation Yrotation
                  End Site
                  {
                    OFFSET 0 0 0
                  }
                }
              }
              JOINT BN_Toe_R_00
              {
                OFFSET 1.65463 0.933666 1.02414
                CHANNELS 6 Xposition Yposition Zposition Zrotation Xrotation Yrotation
                JOINT BN_Toe_R_01
                {
                  OFFSET 3.51775 0 0
                  CHANNELS 6 Xposition Yposition Zposition Zrotation Xrotation Yrotation
                  End Site
                  {
                    OFFSET 0 0 0
                  }
                }
              }
              JOINT BN_Toe_R_20
              {
                OFFSET 1.47309 1.0106 -1.16708
                CHANNELS 6 Xposition Yposition Zposition Zrotation Xrotation Yrotation
                JOINT BN_Toe_R_21
                {
                  OFFSET 3.94896 0 0
                  CHANNELS 6 Xposition Yposition Zposition Zrotation Xrotation Yrotation
                  End Site
                  {
                    OFFSET 0 0 0
                  }
                }
              }
              JOINT BN_Toe_R_10
              {
                OFFSET 1.07522 1.64225 0.0223596
                CHANNELS 6 Xposition Yposition Zposition Zrotation Xrotation Yrotation
                JOINT BN_Toe_R_11
                {
                  OFFSET 4.09655 0 0
                  CHANNELS 6 Xposition Yposition Zposition Zrotation Xrotation Yrotation
                  End Site
                  {
                    OFFSET 0 0 0
                  }
                }
              }
              JOINT Bip01_R_Toe0
              {
                OFFSET 2.04238 1.88275 0
                CHANNELS 6 Xposition Yposition Zposition Zrotation Xrotation Yrotation
                End Site
                {
                  OFFSET 0 0 0
                }
              }
            }
          }
        }
      }
      JOINT Bip01_L_Thigh
      {
        OFFSET -2.85154 -1.24849 6.20577
        CHANNELS 6 Xposition Yposition Zposition Zrotation Xrotation Yrotation
        JOINT Bip01_L_Calf
        {
          OFFSET 6.73247 0 0
          CHANNELS 6 Xposition Yposition Zposition Zrotation Xrotation Yrotation
          JOINT Bip01_L_HorseLink
          {
            OFFSET 8.08524 0 0
            CHANNELS 6 Xposition Yposition Zposition Zrotation Xrotation Yrotation
            JOINT Bip01_L_Foot
            {
              OFFSET 8.97521 0 0
              CHANNELS 6 Xposition Yposition Zposition Zrotation Xrotation Yrotation
              JOINT BN_Toe_L_00
              {
                OFFSET 1.65461 0.933701 -1.02419
                CHANNELS 6 Xposition Yposition Zposition Zrotation Xrotation Yrotation
                JOINT BN_Toe_L_01
                {
                  OFFSET 3.51778 0 0
                  CHANNELS 6 Xposition Yposition Zposition Zrotation Xrotation Yrotation
                  End Site
                  {
                    OFFSET 0 0 0
                  }
                }
              }
              JOINT BN_Toe_L_10
              {
                OFFSET 1.07523 1.6422 -0.0221281
                CHANNELS 6 Xposition Yposition Zposition Zrotation Xrotation Yrotation
                JOINT BN_Toe_L_11
                {
                  OFFSET 4.09657 0 0
                  CHANNELS 6 Xposition Yposition Zposition Zrotation Xrotation Yrotation
                  End Site
                  {
                    OFFSET 0 0 0
                  }
                }
              }
              JOINT BN_Toe_L_30
              {
                OFFSET 1.58761 -0.234954 0.295135
                CHANNELS 6 Xposition Yposition Zposition Zrotation Xrotation Yrotation
                JOINT BN_Toe_L_31
                {
                  OFFSET 3.03847 0 0
                  CHANNELS 6 Xposition Yposition Zposition Zrotation Xrotation Yrotation
                  End Site
                  {
                    OFFSET 0 0 0
                  }
                }
              }
              JOINT BN_Toe_L_20
              {
                OFFSET 1.4731 1.01055 1.1673
                CHANNELS 6 Xposition Yposition Zposition Zrotation Xrotation Yrotation
                JOINT BN_Toe_L_21
                {
                  OFFSET 3.94897 0 0
                  CHANNELS 6 Xposition Yposition Zposition Zrotation Xrotation Yrotation
                  End Site
                  {
                    OFFSET 0 0 0
                  }
                }
              }
              JOINT Bip01_L_Toe0
              {
                OFFSET 2.04238 1.88276 0
                CHANNELS 6 Xposition Yposition Zposition Zrotation Xrotation Yrotation
                End Site
                {
                  OFFSET 0 0 0
                }
              }
            }
          }
        }
      }
      JOINT Bip01_Spine1
      {
        OFFSET 8.6167 -0.00679016 0
        CHANNELS 6 Xposition Yposition Zposition Zrotation Xrotation Yrotation
        JOINT BN_Wing_R_01
        {
          OFFSET 0.267445 -6.12421 -7.49305
          CHANNELS 6 Xposition Yposition Zposition Zrotation Xrotation Yrotation
          JOINT BN_Wing_R_02
          {
            OFFSET 14.7158 0 0
            CHANNELS 6 Xposition Yposition Zposition Zrotation Xrotation Yrotation
            JOINT BN_Wing_R_03
            {
              OFFSET 19.0858 0 0
              CHANNELS 6 Xposition Yposition Zposition Zrotation Xrotation Yrotation
              JOINT BN_Wing_R_05
              {
                OFFSET 2.68908 -0.270637 0.785261
                CHANNELS 6 Xposition Yposition Zposition Zrotation Xrotation Yrotation
                JOINT BN_Wing_R_06
                {
                  OFFSET 21.1083 0 0
                  CHANNELS 6 Xposition Yposition Zposition Zrotation Xrotation Yrotation
                  End Site
                  {
                    OFFSET 0 0 0
                  }
                }
              }
              JOINT BN_Wing_R_04
              {
                OFFSET 27.642 0 0
                CHANNELS 6 Xposition Yposition Zposition Zrotation Xrotation Yrotation
                End Site
                {
                  OFFSET 0 0 0
                }
              }
            }
          }
        }
        JOINT BN_Wing_L_01
        {
          OFFSET 0.267452 -6.12421 7.49305
          CHANNELS 6 Xposition Yposition Zposition Zrotation Xrotation Yrotation
          JOINT BN_Wing_L_02
          {
            OFFSET 14.7158 0 0
            CHANNELS 6 Xposition Yposition Zposition Zrotation Xrotation Yrotation
            JOINT BN_Wing_L_03
            {
              OFFSET 19.0858 0 0
              CHANNELS 6 Xposition Yposition Zposition Zrotation Xrotation Yrotation
              JOINT BN_Wing_L_05
              {
                OFFSET 2.68908 -0.270635 -0.785254
                CHANNELS 6 Xposition Yposition Zposition Zrotation Xrotation Yrotation
                JOINT BN_Wing_L_06
                {
                  OFFSET 21.1083 0 0
                  CHANNELS 6 Xposition Yposition Zposition Zrotation Xrotation Yrotation
                  End Site
                  {
                    OFFSET 0 0 0
                  }
                }
              }
              JOINT BN_Wing_L_04
              {
                OFFSET 27.642 0 1.14441e-005
                CHANNELS 6 Xposition Yposition Zposition Zrotation Xrotation Yrotation
                End Site
                {
                  OFFSET 0 0 0
                }
              }
            }
          }
        }
        JOINT Bip01_Neck
        {
          OFFSET 7.59958 -1.43237 0
          CHANNELS 6 Xposition Yposition Zposition Zrotation Xrotation Yrotation
          JOINT Bip01_Neck1
          {
            OFFSET 3.64749 -0.00262451 0
            CHANNELS 6 Xposition Yposition Zposition Zrotation Xrotation Yrotation
            JOINT Bip01_Neck2
            {
              OFFSET 3.32331 -0.00284576 0
              CHANNELS 6 Xposition Yposition Zposition Zrotation Xrotation Yrotation
              JOINT Bip01_Head
              {
                OFFSET 4.63256 -0.573471 0
                CHANNELS 6 Xposition Yposition Zposition Zrotation Xrotation Yrotation
                JOINT BN_Jaw
                {
                  OFFSET 1.05386 2.23561 0
                  CHANNELS 6 Xposition Yposition Zposition Zrotation Xrotation Yrotation
                  End Site
                  {
                    OFFSET 0 0 0
                  }
                }
              }
            }
          }
        }
      }
    }
  }
}
MOTION
Frames:	4
Frame Time:	0.0333333
0.0502716 100.409 -4.45603e-007 104.11 -90 -167.441 0 0 0 -89.9984 23.7027 -89.9984 -4.6544 -2.06234 -2.32831e-010 -18.4917 1.12082 177.665 10.2279 -0.119812 3.68897 31.1083 76.3369 -12.2899 15.0421 -2.90573e-007 1.52588e-005 4.05575 -4.86012 -24.0203 10.2279 -0.119797 -3.68907 -137.577 74.6517 156.385 15.0421 -8.34465e-007 -2.13163e-014 -4.06784 4.71458 -23.9874 2.80303 1.35405 -2.32829e-010 5.97586 -1.80133e-006 -1.72087e-005 -2.93028 -1.05213 -6.20578 -149.552 -25.1282 -174.819 6.73247 -7.6294e-006 3.8147e-006 -124.003 8.58707e-006 -1.41724e-005 8.08523 -1.42109e-014 0 145.263 1.48912e-006 -7.37293e-007 8.97518 7.6294e-006 7.10543e-015 -76.5299 -10.9616 -23.2903 1.58762 -0.234982 -0.295153 160.626 -6.40207 179.752 3.03849 2.38419e-006 -3.9968e-015 -25.6995 -3.37644e-007 1.05579e-010 1.65463 0.933666 1.02414 23.9087 38.1507 -25.7392 3.51775 -4.26326e-014 7.10543e-015 -29.5967 -1.72368e-005 -7.15255e-006 1.47309 1.0106 -1.16708 39.7707 -60.7974 25.8659 3.94896 7.10543e-015 3.8147e-006 -24.8815 -1.53613e-005 -1.08722e-005 1.07522 1.64225 0.0223596 17.8357 -4.29881 -4.57222 4.09655 -7.6294e-006 -9.53674e-007 -16.9948 9.47578e-006 2.90391e-006 2.04238 1.88275 -1.95843e-012 105.459 -19.7772 44.4182 -2.93028 -1.05216 6.20577 -164.422 18.8774 176.794 6.73247 1.42109e-014 5.72205e-006 -133.713 -1.98526e-006 3.13493e-007 8.08524 7.6294e-006 -1.90735e-006 128.611 -6.93928e-006 -9.4047e-006 8.97521 7.62939e-006 3.8147e-006 -89.2853 -4.69027 13.6415 1.65461 0.933701 -1.02419 49.4513 -42.6121 28.1342 3.51778 -2.13163e-014 9.53674e-007 -15.5271 -1.46949e-005 -1.85121e-006 1.07523 1.6422 -0.0221281 33.3181 5.36519 3.2683 4.09657 3.81469e-006 -5.32907e-015 -11.1052 1.29163e-005 -1.51331e-005 1.58761 -0.234954 0.295135 -174.276 5.91643 177.519 3.03847 0 1.78814e-007 -21.6632 -0.000133677 0.000362709 1.4731 1.01055 1.1673 27.3498 52.1624 -15.621 3.94897 3.8147e-006 -9.53674e-007 -9.60145 -2.54274e-005 0.000162205 2.04238 1.88276 2.44323e-007 108.86 17.6881 -45.4197 8.6167 -0.00679016 -4.33681e-019 -8.27448 1.24038e-005 -1.5681e-005 0.267445 -6.12421 -7.49305 -102.453 -16.6403 100.802 14.7158 -1.42109e-014 -4.26326e-014 69.1226 2.84898 7.2042 19.0859 3.8147e-006 7.6294e-006 -76.465 -10.128 70.3178 2.68908 -0.270637 0.785261 -43.8613 2.45573 11.274 21.1083 7.62939e-006 -1.90735e-006 4.66972 -0.0258214 23.3232 27.642 1.06581e-012 -7.62939e-006 -2.63387 -0.0478377 41.9819 0.267452 -6.12421 7.49305 -102.664 16.6899 -100.34 14.7158 -1.42109e-014 3.8147e-006 69.1226 -2.84898 -7.2042 19.0858 7.62939e-006 0 -76.465 10.128 -70.3178 2.68908 -0.270635 -0.785254 -43.8614 -2.45573 -11.274 21.1083 -7.62938e-006 -2.27374e-013 4.66974 0.0257642 -23.3244 27.642 1.90735e-006 1.14441e-005 -2.63387 0.0478367 -41.9819 7.59958 -1.43237 -2.32831e-010 -5.6222 -9.8143e-007 9.96985e-006 3.64749 -0.00262451 4.65661e-010 -2.37825 1.00092e-005 4.15674e-007 3.32331 -0.00284576 2.32831e-010 2.77351 -5.20692e-011 2.5208e-012 4.63256 -0.573471 -1.73472e-017 -20.3585 5.90701e-006 1.28772e-005 1.05386 2.23561 -3.81639e-016 -100.309 -0.0295563 -179.975 
0.0502716 100.318 -4.42512e-007 96.4978 -90 -175.654 0 0 0 -89.9984 23.2925 -89.9984 -4.6544 -2.06234 -2.32831e-010 -18.4625 1.11963 177.664 10.2279 -0.119812 3.68897 31.0965 76.3613 -12.3825 15.0421 -2.90573e-007 1.52588e-005 4.16701 -4.92531 -21.2868 10.2279 -0.119797 -3.68907 -137.587 74.6744 156.288 15.0421 -8.34465e-007 -2.13163e-014 -4.1732 4.78327 -21.2598 2.81357 1.33189 -2.3287e-010 5.79898 -1.7482e-006 -1.72142e-005 -2.93506 -1.03886 -6.20578 -150.346 -25.3588 -174.99 6.73247 -7.6294e-006 3.8147e-006 -125.204 9.16885e-007 -1.9609e-005 8.08523 -2.13163e-014 0 144.887 6.93359e-007 4.11051e-007 8.97518 7.6294e-006 -7.10543e-015 -75.9544 -10.8245 -23.5663 1.58762 -0.234982 -0.295153 160.215 -6.3972 179.706 3.03849 2.38419e-006 -2.66454e-015 -25.4872 -3.29248e-007 5.3606e-010 1.65463 0.933666 1.02414 24.3872 37.9695 -26.0253 3.51775 -1.42109e-014 0 -29.2216 -2.21645e-005 1.65762e-006 1.47309 1.0106 -1.16708 40.5217 -60.6167 26.5208 3.94896 7.10543e-015 3.8147e-006 -24.5088 -1.95293e-005 -1.62407e-006 1.07522 1.64225 0.0223596 18.2705 -4.33417 -4.54193 4.09655 -7.6294e-006 -9.53674e-007 -16.5977 9.49518e-006 2.83772e-006 2.04238 1.88275 -2.32658e-012 105.196 -19.3607 44.5778 -2.93507 -1.03888 6.20577 -164.649 18.8818 176.77 6.73247 0 5.72205e-006 -133.731 -9.22208e-006 -6.61176e-006 8.08524 7.6294e-006 -1.90735e-006 128.824 3.41444e-007 -1.52661e-005 8.97521 7.62939e-006 3.8147e-006 -88.9114 -4.5221 13.6875 1.65461 0.933701 -1.02419 49.7807 -42.4852 28.3539 3.51778 -1.42108e-014 9.53674e-007 -15.2862 -1.47248e-005 -1.80909e-006 1.07523 1.6422 -0.0221281 33.6197 5.38226 3.24005 4.09657 3.81469e-006 -3.55271e-015 -10.8593 1.28524e-005 -1.51893e-005 1.58761 -0.234954 0.295135 -174.538 5.92199 177.547 3.03847 -7.10542e-015 1.78814e-007 -21.4423 -0.000145127 0.000395975 1.4731 1.01055 1.1673 27.7853 52.0868 -15.9648 3.94897 3.8147e-006 -9.53674e-007 -9.35287 -2.67981e-005 0.000174847 2.04238 1.88276 2.43957e-007 108.907 17.6645 -45.4264 8.6167 -0.00679016 -1.73472e-018 -8.12534 1.23629e-005 -1.57132e-005 0.267445 -6.12421 -7.49305 -105.908 -17.0496 92.4712 14.7158 0 2.84217e-014 76.871 3.80189 6.85224 19.0859 3.81469e-006 7.6294e-006 -76.5851 -13.0064 71.1198 2.68908 -0.270637 0.785261 -43.8587 2.45857 11.84 21.1083 7.62939e-006 -1.90735e-006 5.50864 0.54464 24.4294 27.642 1.13687e-012 -7.62939e-006 -2.63225 -0.0470649 43.2892 0.267452 -6.12421 7.49305 -106.13 17.0611 -91.9752 14.7158 -1.42109e-014 3.8147e-006 76.871 -3.8019 -6.85224 19.0858 7.62939e-006 0 -76.5851 13.0064 -71.1198 2.68908 -0.270635 -0.785254 -43.8587 -2.45858 -11.84 21.1083 -7.62938e-006 -2.27374e-013 5.50864 -0.544642 -24.4294 27.642 1.90735e-006 1.14441e-005 -2.63226 0.0470624 -43.2892 7.59958 -1.43237 -2.32831e-010 -5.59745 -9.77124e-007 9.97027e-006 3.64749 -0.00262451 4.65661e-010 -2.31466 1.00097e-005 4.04566e-007 3.32331 -0.00284576 2.32831e-010 2.00648 -5.20755e-011 1.82361e-012 4.63256 -0.573471 2.25514e-017 -20.2798 5.92469e-006 1.28691e-005 1.05386 2.23561 -1.04083e-016 -100.309 -0.0295715 -179.975 
0.0502717 100.179 -4.37778e-007 99.4181 -90 -173.458 0 0 0 -89.9984 22.8573 -89.9984 -4.6544 -2.06234 -2.32831e-010 -18.3714 1.11591 177.662 10.2279 -0.119812 3.68897 31.0497 76.4291 -12.6344 15.0421 -2.90573e-007 1.52588e-005 4.279 -4.98396 -18.6059 10.2279 -0.119797 -3.68907 -137.621 74.7253 156.029 15.0421 -8.34465e-007 -7.10543e-015 -4.27959 4.84563 -18.5847 2.82391 1.31018 -2.32911e-010 5.61869 -1.69402e-006 -1.72196e-005 -2.93976 -1.02583 -6.20578 -151.163 -25.5831 -175.163 6.73247 -7.6294e-006 3.8147e-006 -126.397 9.38867e-006 -1.36413e-005 8.08523 2.84217e-014 0 144.51 3.5998e-007 8.79338e-007 8.97518 7.6294e-006 0 -75.4065 -10.6706 -23.8476 1.58762 -0.234982 -0.295153 159.811 -6.39213 179.662 3.03849 2.38419e-006 -5.77316e-015 -25.2789 -3.21442e-007 9.85821e-010 1.65463 0.933666 1.02414 24.8542 37.7902 -26.3033 3.51775 -1.42109e-014 -3.55271e-015 -28.8537 -2.21432e-005 1.75502e-006 1.47309 1.0106 -1.16708 41.2499 -60.4354 27.1547 3.94896 7.10543e-015 3.8147e-006 -24.1434 -1.61331e-005 -8.9437e-006 1.07522 1.64225 0.0223596 18.6499 -4.36389 -4.51246 4.09655 -7.6294e-006 -9.53674e-007 -16.2083 9.51395e-006 2.7727e-006 2.04238 1.88275 -1.27054e-012 104.938 -18.9529 44.736 -2.93976 -1.02586 6.20577 -164.87 18.8823 176.74 6.73247 -2.84217e-014 5.72205e-006 -133.731 -9.21963e-006 -6.61177e-006 8.08524 7.6294e-006 -1.90735e-006 129.065 -6.90186e-006 -9.44117e-006 8.97521 7.62939e-006 3.8147e-006 -88.585 -4.36175 13.7352 1.65461 0.933701 -1.02419 50.1025 -42.3598 28.5678 3.51778 -2.13163e-014 9.53674e-007 -15.05 -1.48216e-005 -1.52207e-006 1.07523 1.6422 -0.0221281 33.8417 5.39473 3.21921 4.09657 3.81469e-006 -5.32907e-015 -10.6181 1.27904e-005 -1.52436e-005 1.58761 -0.234954 0.295135 -174.795 5.92737 177.574 3.03847 3.55271e-015 1.78814e-007 -21.2256 -0.000155759 0.000427782 1.4731 1.01055 1.1673 28.2109 52.0111 -16.3003 3.94897 3.8147e-006 -9.53674e-007 -9.10913 -2.82283e-005 0.000188469 2.04238 1.88276 2.43587e-007 108.954 17.6413 -45.4329 8.6167 -0.00679016 -1.73472e-018 -7.93441 1.23105e-005 -1.57543e-005 0.267445 -6.12421 -7.49305 -109.511 -16.7476 83.638 14.7158 0 0 84.2346 4.7048 6.47003 19.0859 3.81469e-006 7.6294e-006 -76.439 -16.7016 71.4247 2.68908 -0.270637 0.785261 -43.8617 2.45891 12.298 21.1083 7.62939e-006 -1.90735e-006 6.06063 1.02175 25.105 27.642 1.16529e-012 -7.62939e-006 -2.63068 -0.0462675 44.5711 0.267452 -6.12421 7.49305 -109.744 16.7268 -83.133 14.7158 0 3.8147e-006 84.2346 -4.70479 -6.47002 19.0858 7.62939e-006 1.42109e-014 -76.439 16.7016 -71.4247 2.68908 -0.270635 -0.785254 -43.8618 -2.4589 -12.298 21.1083 -7.62938e-006 -2.30926e-013 6.06062 -1.02188 -25.1074 27.642 1.90735e-006 1.14441e-005 -2.63068 0.0462686 -44.5711 7.59958 -1.43237 -2.32831e-010 -5.57318 -9.729e-007 9.97069e-006 3.64749 -0.00262451 4.65661e-010 -2.25232 1.00101e-005 3.93674e-007 3.32331 -0.00284576 2.32831e-010 1.19956 -5.20905e-011 1.09006e-012 4.63256 -0.573471 2.0383e-016 -20.2027 5.94201e-006 1.28611e-005 1.05386 2.23561 -4.77049e-017 -100.309 -0.0295868 -179.975 
0.0502716 99.9919 -4.31378e-007 100.29 -90 -173.414 0 0 0 -89.9984 22.3936 -89.9984 -4.6544 -2.06234 -2.32831e-010 -18.2299 1.11013 177.66 10.2279 -0.119812 3.68897 30.9714 76.5381 -13.0373 15.0421 -2.90573e-007 1.52588e-005 4.3948 -5.03786 -15.8982 10.2279 -0.119797 -3.68907 -137.667 74.8139 155.593 15.0421 -8.34465e-007 -1.42109e-014 -4.38989 4.90355 -15.8828 2.83436 1.28825 -2.32952e-010 5.43663 -1.6393e-006 -1.72249e-005 -2.9445 -1.01268 -6.20578 -152.021 -25.8155 -175.34 6.73247 -7.6294e-006 3.8147e-006 -127.617 9.3375e-006 -1.36999e-005 8.08523 0 0 144.156 6.22087e-006 -7.23908e-006 8.97518 7.6294e-006 0 -74.8531 -10.519 -24.139 1.58762 -0.234982 -0.295153 159.404 -6.3867 179.617 3.03849 2.38419e-006 -3.10862e-015 -25.0686 -3.13903e-007 1.44991e-009 1.65463 0.933666 1.02414 25.2899 37.6168 -26.5792 3.51775 0 -3.55271e-015 -28.4822 -2.212e-005 1.85414e-006 1.47309 1.0106 -1.16708 41.977 -60.2484 27.7866 3.94896 7.10543e-015 3.8147e-006 -23.7743 -1.94394e-005 -1.30918e-006 1.07522 1.64225 0.0223596 19.0332 -4.39372 -4.48252 4.09655 -7.6294e-006 -9.53674e-007 -15.8151 9.53244e-006 2.70692e-006 2.04238 1.88275 7.84262e-013 104.676 -18.5418 44.8972 -2.9445 -1.01272 6.20577 -165.093 18.9007 176.708 6.73247 0 5.72205e-006 -133.713 -2.50237e-006 -1.85995e-007 8.08524 7.6294e-006 -1.90735e-006 129.326 -7.55094e-006 -8.91666e-006 8.97521 7.62939e-006 3.8147e-006 -88.3006 -4.20501 13.7808 1.65461 0.933701 -1.02419 50.3914 -42.2573 28.7497 3.51778 0 9.53674e-007 -14.8114 -1.47867e-005 -1.73643e-006 1.07523 1.6422 -0.0221281 34.0659 5.40725 3.1981 4.09657 3.81469e-006 -3.55271e-015 -10.3746 1.27272e-005 -1.52988e-005 1.58761 -0.234954 0.295135 -175.055 5.93264 177.602 3.03847 0 1.78814e-007 -21.0068 -0.000165625 0.000458361 1.4731 1.01055 1.1673 28.5449 51.9505 -16.5635 3.94897 3.8147e-006 -9.53674e-007 -8.86297 -2.9083e-005 0.00019924 2.04238 1.88276 2.43226e-007 109.001 17.6179 -45.4394 8.6167 -0.00679016 -8.67362e-019 -7.70656 1.22478e-005 -1.58032e-005 0.267445 -6.12421 -7.49305 -112.885 -15.7264 74.6434 14.7158 1.42109e-014 7.10543e-015 91.0963 5.54041 6.05288 19.0859 3.81469e-006 7.6294e-006 -76.1655 -21.2218 71.6285 2.68908 -0.270637 0.785261 -43.8599 2.46306 12.6671 21.1083 7.62939e-006 -1.90735e-006 6.61246 1.5102 25.7827 27.642 1.15818e-012 -7.62939e-006 -2.63046 -0.0458886 45.2148 0.267452 -6.12421 7.49305 -113.109 15.6746 -74.1491 14.7158 1.42109e-014 3.8147e-006 91.0963 -5.54041 -6.05287 19.0858 7.62939e-006 0 -76.1614 21.2189 -71.6289 2.68908 -0.270635 -0.785254 -43.8599 -2.46307 -12.6672 21.1083 -7.62938e-006 -2.27374e-013 6.61241 -1.51048 -25.7875 27.642 1.90735e-006 1.14441e-005 -2.63046 0.0458898 -45.2148 7.59958 -1.43237 -2.32831e-010 -5.4944 -9.5919e-007 9.97201e-006 3.64749 -0.00262451 4.65661e-010 -2.26281 1.001e-005 3.95507e-007 3.32331 -0.00284576 2.32831e-010 0.335737 -5.21195e-011 3.04478e-013 4.63256 -0.573471 1.50054e-016 -20.0802 5.9695e-006 1.28483e-005 1.05386 2.23561 -5.31693e-016 -100.309 -0.029541 -179.975 
